<?xml version="1.0" encoding="UTF-8"?>
<svg xmlns="http://www.w3.org/2000/svg" viewBox="0 0 128 128">
  <path d="M113.33,67.15c-2.58-3.19-6.03-5.15-10.37-5.9,3.86-.75,6.93-2.52,9.2-5.34,2.27-2.81,3.41-6.32,3.41-10.52,0-3.8-1.03-7.12-3.1-9.96-2.07-2.85-4.95-5.07-8.64-6.66-3.7-1.59-8.02-2.39-12.96-2.39h-55.11c-7.52,0-12.9.93-17.31,4.83-4.41,3.9-6.61,9.1-6.61,15.61,0,5.83,1.74,10.76,5.24,14.79,3.49,4.03,8.39,6.8,14.69,8.29l7.52,1.73c2.44.54,4.34,1.59,5.69,3.15,1.35,1.56,2.03,3.42,2.03,5.59,0,2.51-.9,4.47-2.69,5.9-1.8,1.42-4.29,2.13-7.47,2.13s-5.95-.73-7.88-2.19c-1.93-1.46-2.9-3.44-2.9-5.95h-15.25c0,4.34,1.05,8.1,3.15,11.29,2.1,3.19,5.08,5.66,8.95,7.42s8.4,2.64,13.62,2.64,9.74-.92,13.57-2.75c3.83-1.83,6.81-4.41,8.95-7.73,2.14-3.32,3.2-7.15,3.2-11.49,0-6.03-1.69-11-5.08-14.9-3.39-3.9-8.37-6.59-14.95-8.08l-7.42-1.73c-2.51-.54-4.42-1.58-5.75-3.1-1.32-1.53-1.98-3.27-1.98-5.24,0-2.64.78-4.64,2.34-6,1.49-1.29,3.61-1.95,6.33-2.01v.08h31.22v61.92h24.81c5.08,0,9.52-.9,13.32-2.69,3.8-1.8,6.76-4.3,8.9-7.52,2.13-3.22,3.2-6.96,3.2-11.24,0-4.81-1.29-8.81-3.86-12ZM81.71,38.68h8.95c2.98,0,5.32.76,7.02,2.29,1.69,1.53,2.54,3.68,2.54,6.46s-.85,4.86-2.54,6.46c-1.7,1.59-4.03,2.39-7.02,2.39h-8.95v-17.59ZM98.99,85.66c-1.9,1.76-4.51,2.64-7.83,2.64h-9.46v-20.03h9.46c3.32,0,5.93.9,7.83,2.7,1.9,1.8,2.85,4.25,2.85,7.37s-.95,5.56-2.85,7.32Z" fill="#fff" stroke="#231815" stroke-miterlimit="10" stroke-width="3"/>
</svg>